# xmcd
#
# Track frame offsets:
#	180
#	10922
#	18857
#	28026
#	36266
#	47619
#	57860
#	66683
#	77948
#	89788
#
# Disc length: 1336 seconds
#
# Revision: 0
# Processed by: cddbd v1.5PL3 Copyright (c) Steve Scherf et al.
# Submitted via: dBpowerAMP V4.0
#
DISCID=8405360a
DTITLE=Roger Miller - King Of The Road
DYEAR=1900
DGENRE=Country
TTITLE0=When Two Worlds Collide
TTITLE1=Dang Me
TTITLE2=Chug A Lug
TTITLE3=Do Wacka Do
TTITLE4=King Of The Road
TTITLE5=Engine Engine #9
TTITLE6=England Swings
TTITLE7=Husbands And Wives
TTITLE8=Walkin' In The Sunshine
TTITLE9=Kansas City Star
EXTD=
EXTT0=
EXTT1=
EXTT2=
EXTT3=
EXTT4=
EXTT5=
EXTT6=
EXTT7=
EXTT8=
EXTT9=
PLAYORDER=
